<svg xmlns="http://www.w3.org/2000/svg" viewBox="0 0 512 512" width="100%" height="100%">
  <defs>
    <linearGradient id="zenNeonGrad" x1="15%" y1="15%" x2="85%" y2="85%">
      <stop offset="0%" stop-color="#311b92" />   <stop offset="45%" stop-color="#4a148c" />  <stop offset="75%" stop-color="#00acc1" />  <stop offset="100%" stop-color="#00e5ff" /> </linearGradient>

    <filter id="neonGlow" x="-20%" y="-20%" width="140%" height="140%">
      <feGaussianBlur stdDeviation="8" result="blur" />
      <feMerge>
        <feMergeNode in="blur" />
        <feMergeNode in="SourceGraphic" />
      </feMerge>
    </filter>
  </defs>

  <rect x="32" y="32" width="448" height="448" rx="120" fill="url(#zenNeonGrad)" />

  <path d="M 190,85 L 340,85 A 85,85 0 0,1 425,170 L 425,320" fill="none" stroke="#ffffff" stroke-width="3" stroke-dasharray="6 12" opacity="0.4" />
  <path d="M 320,425 L 170,425 A 85,85 0 0,1 85,340 L 85,250" fill="none" stroke="#ffffff" stroke-width="3" stroke-dasharray="6 12" opacity="0.4" />
  
  <circle cx="256" cy="85" r="5" fill="#ffffff" opacity="0.8" />
  <circle cx="425" cy="256" r="5" fill="#ffffff" opacity="0.8" />
  <circle cx="85" cy="256" r="6" fill="#ffffff" filter="url(#neonGlow)" />
  <circle cx="256" cy="425" r="5" fill="#ffffff" opacity="0.8" />

  <path d="M 315,115 L 290,115 M 298,107 L 290,115 L 298,123" fill="none" stroke="#00e5ff" stroke-width="5" stroke-linecap="round" stroke-linejoin="round" filter="url(#neonGlow)" />
  <path d="M 290,135 L 315,135 M 307,127 L 315,135 L 307,143" fill="none" stroke="#ffffff" stroke-width="5" stroke-linecap="round" stroke-linejoin="round" filter="url(#neonGlow)" />

  <g filter="url(#neonGlow)">
    <circle cx="230" cy="240" r="75" fill="none" stroke="#ffffff" stroke-width="22" />
    <line x1="283" y1="293" x2="355" y2="365" stroke="#ffffff" stroke-width="24" stroke-linecap="round" />
  </g>

  <text x="230" y="274" font-family="system-ui, -apple-system, sans-serif" font-size="100" font-weight="800" fill="#00e5ff" text-anchor="middle" filter="url(#neonGlow)">$</text>
</svg>
